<svg aria-hidden="true" style="position: absolute; width: 0; height: 0; overflow: hidden;" version="1.1" xmlns="http://www.w3.org/2000/svg" xmlns:xlink="http://www.w3.org/1999/xlink">
<defs>
    <symbol id="icon-facebook" viewBox="0 0 32 32">
    <title>facebook</title>
    <path d="M23.378 0.012v5.071s-3.738-0.369-4.677 1.058c-0.512 0.788-0.208 3.077-0.254 4.726h4.959c-0.418 1.92-0.719 3.225-1.028 4.898h-3.958v15.754h-6.87c0-4.862 0-10.523 0-15.692h-2.923v-4.96h2.891c0.148-3.631 0.203-7.225 2.005-9.046 2.026-2.055 3.961-1.809 9.855-1.809z"></path>
    </symbol>
    <symbol id="icon-instagram" viewBox="0 0 32 32">
    <title>instagram</title>
    <path d="M27.962 31.988h-23.981c-2.207 0-3.997-1.789-3.997-3.997v0-23.981c0-2.207 1.789-3.997 3.997-3.997v0h23.981c2.207 0 3.997 1.789 3.997 3.997v0 23.981c0 2.207-1.789 3.997-3.997 3.997v0zM15.971 9.805c-0 0-0.001 0-0.001 0-2.478 0-4.615 1.456-5.603 3.559l-0.016 0.038c-0.008 0.024-0.017 0.045-0.028 0.064l0.001-0.001c-0.059 0.137-0.11 0.275-0.16 0.412-0.024 0.062-0.050 0.125-0.071 0.187-0.046 0.137-0.084 0.287-0.125 0.425-0.018 0.062-0.037 0.137-0.052 0.2-0.032 0.15-0.055 0.3-0.076 0.462-0.009 0.062-0.021 0.125-0.029 0.187-0.023 0.198-0.036 0.428-0.036 0.661v0.001c0 3.422 2.774 6.195 6.195 6.195s6.195-2.774 6.195-6.195v0c-0.001-0.234-0.014-0.464-0.039-0.691l0.003 0.029c-0.008-0.062-0.020-0.125-0.029-0.187-0.021-0.162-0.044-0.312-0.076-0.462-0.015-0.062-0.035-0.137-0.052-0.2-0.035-0.137-0.072-0.287-0.125-0.425-0.021-0.062-0.047-0.125-0.071-0.187-0.050-0.137-0.101-0.275-0.16-0.412-0.011-0.018-0.020-0.039-0.027-0.060l-0.001-0.002c-1.004-2.14-3.139-3.596-5.615-3.597h-0zM28.362 5.208c0-0.001 0-0.002 0-0.003 0-0.882-0.715-1.596-1.596-1.596-0.001 0-0.002 0-0.003 0h-3.197c-0.001 0-0.002 0-0.003 0-0.882 0-1.596 0.715-1.596 1.596 0 0.001 0 0.002 0 0.003v-0 3.198c0 0.001 0 0.002 0 0.002 0 0.882 0.715 1.596 1.596 1.596 0.001 0 0.002 0 0.003 0h3.197c0.001 0 0.002 0 0.003 0 0.882 0 1.596-0.715 1.596-1.596 0-0.001 0-0.002 0-0.003v0-3.197zM28.362 13.402h-2.948c0.222 0.778 0.35 1.671 0.35 2.594 0 5.408-4.384 9.792-9.792 9.792s-9.792-4.384-9.792-9.792c0-0.923 0.128-1.816 0.366-2.663l-0.017 0.069h-2.948v13.39c0 0.001 0 0.002 0 0.003 0 0.882 0.715 1.596 1.596 1.596 0.001 0 0.002 0 0.003 0h21.583c0.001 0 0.002 0 0.003 0 0.882 0 1.596-0.715 1.596-1.596 0-0.001 0-0.002 0-0.003v0-13.39z"></path>
    </symbol>
    <symbol id="icon-pinterest" viewBox="0 0 32 32">
    <title>pinterest</title>
    <path d="M13.717 20.468c-0.257 1.034-0.517 2.105-0.785 3.151-0.264 1.199-0.568 2.216-0.937 3.201l0.053-0.161c-0.642 1.665-1.491 3.102-2.536 4.372l0.021-0.027c-0.708 0.812-0.558 0.492-0.77 0.443-0.162-0.037-0.176-0.197-0.208-0.418-0.054-0.601-0.085-1.3-0.085-2.006 0-0.741 0.034-1.474 0.1-2.198l-0.007 0.093c0.113-1.575 0.371-3.035 0.762-4.44l-0.037 0.157c0.596-2.535 1.164-5.022 1.766-7.582 0.062-0.16 0.102-0.345 0.111-0.538l0-0.004c-0.254-0.61-0.44-1.317-0.525-2.055l-0.003-0.037c-0.025-0.219-0.040-0.473-0.040-0.731 0-0.593 0.077-1.168 0.222-1.716l-0.011 0.047c0.264-1.304 1.138-2.36 2.306-2.87l0.026-0.010c0.259-0.090 0.557-0.142 0.867-0.142 0.464 0 0.901 0.116 1.283 0.322l-0.014-0.007c0.547 0.332 0.939 0.874 1.065 1.512l0.002 0.014c0.051 0.281 0.080 0.605 0.080 0.936 0 0.494-0.065 0.973-0.188 1.428l0.009-0.038c-0.329 1.502-0.761 2.634-1.153 4.074-0.178 0.465-0.282 1.003-0.282 1.565 0 0.234 0.018 0.463 0.052 0.687l-0.003-0.025c0.146 0.654 0.521 1.203 1.035 1.57l0.008 0.005c0.496 0.359 1.116 0.574 1.786 0.574 0.075 0 0.15-0.003 0.224-0.008l-0.010 0.001c1.363-0.125 2.534-0.855 3.253-1.917l0.010-0.015c1.151-1.617 1.899-3.593 2.059-5.734l0.002-0.038c0.067-0.52 0.106-1.121 0.106-1.73 0-0.261-0.007-0.521-0.021-0.779l0.002 0.036c-0.058-1.457-0.571-2.785-1.399-3.856l0.012 0.016c-0.791-0.971-1.842-1.702-3.046-2.092l-0.046-0.013c-0.872-0.27-1.875-0.425-2.914-0.425-0.6 0-1.187 0.052-1.758 0.151l0.061-0.009c-2.653 0.405-4.854 2.043-6.028 4.3l-0.021 0.045c-0.649 1.19-1.031 2.607-1.031 4.112 0 0.030 0 0.059 0 0.089l-0-0.005c-0.002 0.051-0.003 0.111-0.003 0.171 0 1.077 0.312 2.082 0.85 2.928l-0.013-0.022c0.164 0.246 0.404 0.455 0.564 0.738 0.040 0.153 0.063 0.329 0.063 0.511 0 0.333-0.077 0.649-0.215 0.929l0.006-0.012c-0.135 0.529-0.15 1.243-0.761 1.255-0.297-0.034-0.564-0.139-0.791-0.299l0.005 0.004c-1.611-0.988-2.731-2.644-2.978-4.572l-0.003-0.031c-0.116-0.598-0.182-1.285-0.182-1.988s0.066-1.39 0.193-2.056l-0.011 0.068c0.674-3.249 2.658-5.939 5.363-7.54l0.053-0.029c1.383-0.825 3.008-1.407 4.743-1.642l0.066-0.007c0.581-0.087 1.264-0.145 1.958-0.16l0.017-0c0.169-0.009 0.366-0.013 0.565-0.013 1.722 0 3.358 0.367 4.835 1.028l-0.075-0.030c1.44 0.646 2.66 1.539 3.66 2.637l0.008 0.009c1.028 1.122 1.808 2.489 2.24 4.003l0.017 0.071c0.287 0.837 0.465 1.802 0.492 2.806l0 0.013c-0.047 1.061-0.182 2.061-0.401 3.031l0.022-0.114c-0.415 3.288-2.169 6.101-4.69 7.915l-0.034 0.023c-1.304 0.852-2.902 1.359-4.617 1.359-0.108 0-0.215-0.002-0.321-0.006l0.015 0c-0.904-0.056-1.737-0.314-2.469-0.729l0.028 0.015c-0.68-0.359-1.231-0.883-1.613-1.52l-0.010-0.018z"></path>
    </symbol>
    <symbol id="icon-twitter" viewBox="0 0 32 32">
    <title>twitter</title>
    <path d="M21.439 3.089c0.096-0.005 0.209-0.008 0.323-0.008 1.879 0 3.576 0.781 4.784 2.036l0.002 0.002c1.241-0.206 2.354-0.597 3.368-1.148l-0.056 0.028 0.804-0.443c-0.407 1.229-1.133 2.261-2.080 3.031l-0.012 0.009c-0.205 0.195-0.439 0.363-0.693 0.497l-0.017 0.008v0.012c1.354-0.145 2.592-0.494 3.734-1.015l-0.075 0.031v0.012c-0.611 0.969-1.338 1.797-2.175 2.497l-0.017 0.014c-0.336 0.271-0.673 0.542-1.009 0.8 0.010 0.224 0.015 0.487 0.015 0.751 0 1.205-0.114 2.384-0.333 3.526l0.019-0.117c-1.615 7.249-5.893 12.172-12.663 14.289-1.607 0.478-3.453 0.753-5.363 0.753-1.339 0-2.647-0.135-3.91-0.392l0.125 0.021c-1.476-0.356-2.743-0.782-3.959-1.304l0.16 0.061c-0.723-0.318-1.323-0.635-1.9-0.987l0.070 0.040c-0.19-0.111-0.378-0.234-0.567-0.345 0.431 0.058 0.93 0.091 1.436 0.091 0.221 0 0.441-0.006 0.659-0.019l-0.030 0.001c0.636-0.098 1.259-0.074 1.846-0.197 1.46-0.288 2.759-0.774 3.945-1.438l-0.067 0.034c0.67-0.316 1.246-0.698 1.759-1.151l-0.008 0.007c-0.691-0.002-1.352-0.128-1.963-0.357l0.039 0.013c-1.945-0.672-3.445-2.183-4.087-4.089l-0.013-0.046c0.346 0.067 0.744 0.105 1.151 0.105 0.618 0 1.215-0.088 1.78-0.251l-0.045 0.011c-0.804-0.111-1.521-0.413-2.126-0.858l0.013 0.009c-1.836-1.097-3.047-3.074-3.047-5.334 0-0.067 0.001-0.135 0.003-0.202l-0 0.010c0.222 0.098 0.442 0.209 0.662 0.308 0.389 0.163 0.844 0.296 1.316 0.376l0.037 0.005c0.174 0.063 0.376 0.099 0.585 0.099 0.105 0 0.209-0.009 0.309-0.027l-0.011 0.002h-0.032c-0.325-0.369-0.855-0.628-1.183-1.034-1.011-1.154-1.628-2.676-1.628-4.341 0-0.538 0.064-1.061 0.186-1.562l-0.009 0.045c0.178-0.642 0.415-1.202 0.713-1.722l-0.019 0.036c0.011 0 0.021 0.012 0.032 0.012 0.173 0.255 0.365 0.477 0.581 0.674l0.003 0.003c0.572 0.689 1.203 1.295 1.896 1.826l0.028 0.020c2.201 1.802 4.86 3.131 7.773 3.791l0.127 0.024c0.867 0.229 1.865 0.367 2.893 0.381l0.009 0c-0.114-0.439-0.179-0.942-0.179-1.461 0-0.562 0.077-1.106 0.22-1.622l-0.010 0.042c0.489-1.962 1.841-3.534 3.618-4.316l0.041-0.016c0.409-0.18 0.889-0.333 1.388-0.435l0.047-0.008c0.261-0.037 0.524-0.062 0.786-0.098z"></path>
    </symbol>
    <symbol id="icon-glass" viewBox="0 0 32 32">
    <title>glass</title>
    <path d="M22.857 20.114h-1.463l-0.549-0.549c1.829-2.011 2.926-4.754 2.926-7.68-0-6.583-5.303-11.886-11.886-11.886s-11.886 5.303-11.886 11.886 5.303 11.886 11.886 11.886c2.926 0 5.669-1.097 7.68-2.926l0.549 0.549v1.463l9.143 9.143 2.743-2.743-9.143-9.143zM11.886 20.114c-4.571 0-8.229-3.657-8.229-8.229s3.657-8.229 8.229-8.229 8.229 3.657 8.229 8.229-3.657 8.229-8.229 8.229z"></path>
    </symbol>
    <symbol id="icon-shopping-cart" viewBox="0 0 32 32">
    <title>shopping-cart</title>
    <path d="M9.6 25.6c-1.76 0-3.2 1.44-3.2 3.2s1.44 3.2 3.2 3.2 3.2-1.44 3.2-3.2-1.44-3.2-3.2-3.2zM0 0v3.2h3.2l5.76 12.16-2.24 3.84c-0.16 0.48-0.32 1.12-0.32 1.6 0 1.76 1.44 3.2 3.2 3.2h19.2v-3.2h-18.56c-0.16 0-0.32-0.16-0.32-0.32v-0.16l1.44-2.72h11.84c1.28 0 2.24-0.64 2.72-1.6l5.76-10.4c0.32-0.32 0.32-0.48 0.32-0.8 0-0.96-0.64-1.6-1.6-1.6h-23.68l-1.44-3.2h-5.28zM25.6 25.6c-1.76 0-3.2 1.44-3.2 3.2s1.44 3.2 3.2 3.2 3.2-1.44 3.2-3.2-1.44-3.2-3.2-3.2z"></path>
    </symbol>
</defs>
</svg>
